<svg xmlns="http://www.w3.org/2000/svg" width="1000" height="1340" viewBox="0 0 1000 1340" role="img"><title>Recorrido analítico de particulares y taller</title><defs><marker id="arrow" markerWidth="8" markerHeight="8" refX="7" refY="4" orient="auto"><path d="M0,0 L8,4 L0,8" fill="#617683"/></marker></defs><rect width="100%" height="100%" fill="#faf8f2"/><rect x="15" y="45" width="270" height="1280" fill="#edf1f2"/><text x="30" y="75" font-family="Segoe UI,Arial" font-size="15" fill="#182b3a">analytics</text><rect x="295" y="45" width="270" height="1280" fill="#f5efe4"/><text x="310" y="75" font-family="Segoe UI,Arial" font-size="15" fill="#182b3a">intake</text><rect x="575" y="45" width="270" height="1280" fill="#edf1f2"/><text x="590" y="75" font-family="Segoe UI,Arial" font-size="15" fill="#182b3a">workshop</text><path d="M145,175 V195 H425 V217" fill="none" stroke="#617683" stroke-width="1.5" marker-end="url(#arrow)"><title>lead.status in leads flow</title></path><text x="151" y="191" font-family="Segoe UI,Arial" font-size="10" fill="#465b67">lead.status in leads flow</text><path d="M425,297 V317 H145 V339" fill="none" stroke="#617683" stroke-width="1.5" marker-end="url(#arrow)"><title>validation complete</title></path><text x="151" y="313" font-family="Segoe UI,Arial" font-size="10" fill="#465b67">validation complete</text><path d="M145,419 V439 H145 V461" fill="none" stroke="#617683" stroke-width="1.5" marker-end="url(#arrow)"><title>vehicle missing or consent false</title></path><path d="M145,419 V439 H145 V583" fill="none" stroke="#617683" stroke-width="1.5" marker-end="url(#arrow)"><title>minimum fields present</title></path><path d="M145,541 V561 H145 V1193" fill="none" stroke="#617683" stroke-width="1.5" marker-end="url(#arrow)"><title>exception recorded</title></path><path d="M145,663 V683 H145 V705" fill="none" stroke="#617683" stroke-width="1.5" marker-end="url(#arrow)"><title>quote/candidate classification complete</title></path><path d="M145,785 V805 H705 V827" fill="none" stroke="#617683" stroke-width="1.5" marker-end="url(#arrow)"><title>matching work order exists</title></path><text x="151" y="801" font-family="Segoe UI,Arial" font-size="10" fill="#465b67">matching work order exists</text><path d="M145,785 V805 H145 V1193" fill="none" stroke="#617683" stroke-width="1.5" marker-end="url(#arrow)"><title>no linked work order; commercial state retained</title></path><path d="M705,907 V927 H145 V949" fill="none" stroke="#617683" stroke-width="1.5" marker-end="url(#arrow)"><title>work classified</title></path><text x="151" y="923" font-family="Segoe UI,Arial" font-size="10" fill="#465b67">work classified</text><path d="M145,1029 V1049 H145 V1193" fill="none" stroke="#617683" stroke-width="1.5" marker-end="url(#arrow)"><title>status delivered or cancelled</title></path><path d="M145,1029 V1049 H145 V1071" fill="none" stroke="#617683" stroke-width="1.5" marker-end="url(#arrow)"><title>status non-terminal</title></path><path d="M145,1151 V1171 H145 V1193" fill="none" stroke="#617683" stroke-width="1.5" marker-end="url(#arrow)"><title>review item recorded</title></path><rect x="30" y="95" width="240" height="80" rx="20" fill="#dce9e8" stroke="#8c9d9c"/><text x="40" y="115" font-family="Segoe UI,Arial" font-size="12" fill="#182b3a">Lead particular observado</text><text x="40" y="167" font-family="Segoe UI,Arial" font-size="9" fill="#756447">intake · B2C-START</text><rect x="310" y="217" width="240" height="80" rx="5" fill="#fffdf8" stroke="#8c9d9c"/><text x="320" y="237" font-family="Segoe UI,Arial" font-size="12" fill="#182b3a">Validar cliente, vehículo y</text><text x="320" y="253" font-family="Segoe UI,Arial" font-size="12" fill="#182b3a">consentimiento</text><text x="320" y="289" font-family="Segoe UI,Arial" font-size="9" fill="#756447">intake · B2C-VALIDATE</text><rect x="30" y="339" width="240" height="80" rx="5" fill="#f4dfc4" stroke="#8c9d9c"/><text x="40" y="359" font-family="Segoe UI,Arial" font-size="12" fill="#182b3a">¿Datos mínimos completos?</text><text x="40" y="411" font-family="Segoe UI,Arial" font-size="9" fill="#756447">intake · B2C-COMPLETE</text><rect x="30" y="461" width="240" height="80" rx="5" fill="#fffdf8" stroke="#8c9d9c"/><text x="40" y="481" font-family="Segoe UI,Arial" font-size="12" fill="#182b3a">Crear excepción de</text><text x="40" y="497" font-family="Segoe UI,Arial" font-size="12" fill="#182b3a">intake/follow-up</text><text x="40" y="533" font-family="Segoe UI,Arial" font-size="9" fill="#756447">intake · B2C-REVIEW</text><rect x="30" y="583" width="240" height="80" rx="5" fill="#fffdf8" stroke="#8c9d9c"/><text x="40" y="603" font-family="Segoe UI,Arial" font-size="12" fill="#182b3a">Clasificar cotización y cita</text><text x="40" y="619" font-family="Segoe UI,Arial" font-size="12" fill="#182b3a">observadas</text><text x="40" y="655" font-family="Segoe UI,Arial" font-size="9" fill="#756447">advisor · B2C-QUOTE</text><rect x="30" y="705" width="240" height="80" rx="5" fill="#f4dfc4" stroke="#8c9d9c"/><text x="40" y="725" font-family="Segoe UI,Arial" font-size="12" fill="#182b3a">¿Existe orden vinculable?</text><text x="40" y="777" font-family="Segoe UI,Arial" font-size="9" fill="#756447">workshop_controller · B2C-HAS-WORK</text><rect x="590" y="827" width="240" height="80" rx="5" fill="#fffdf8" stroke="#8c9d9c"/><text x="600" y="847" font-family="Segoe UI,Arial" font-size="12" fill="#182b3a">Evaluar WIP, bloqueo, QC, ciclo</text><text x="600" y="863" font-family="Segoe UI,Arial" font-size="12" fill="#182b3a">e intervalos</text><text x="600" y="899" font-family="Segoe UI,Arial" font-size="9" fill="#756447">workshop_controller · B2C-WIP</text><rect x="30" y="949" width="240" height="80" rx="5" fill="#f4dfc4" stroke="#8c9d9c"/><text x="40" y="969" font-family="Segoe UI,Arial" font-size="12" fill="#182b3a">¿Caso terminal?</text><text x="40" y="1021" font-family="Segoe UI,Arial" font-size="9" fill="#756447">workshop_controller · B2C-TERMINAL</text><rect x="30" y="1071" width="240" height="80" rx="5" fill="#fffdf8" stroke="#8c9d9c"/><text x="40" y="1091" font-family="Segoe UI,Arial" font-size="12" fill="#182b3a">Priorizar orden abierta o</text><text x="40" y="1107" font-family="Segoe UI,Arial" font-size="12" fill="#182b3a">detenida</text><text x="40" y="1143" font-family="Segoe UI,Arial" font-size="9" fill="#756447">workshop_controller · B2C-EXCEPTION</text><rect x="30" y="1193" width="240" height="80" rx="20" fill="#dce9e8" stroke="#8c9d9c"/><text x="40" y="1213" font-family="Segoe UI,Arial" font-size="12" fill="#182b3a">Clasificación documentada</text><text x="40" y="1265" font-family="Segoe UI,Arial" font-size="9" fill="#756447">analytics · B2C-END</text></svg>